<svg xmlns="http://www.w3.org/2000/svg" xmlns:xlink="http://www.w3.org/1999/xlink" width="213" height="220" viewBox="0 0 213 220">
    <defs>
        <path id="a" d="M205.5 68.5V8H160v9h-14.5l-9-7L122 0H96L63 22l-7.5-5h-14L39 10H0v58.5h39l2.5-8.5h14L99 99.5h7l4-6h9l3-8.5h6.5l8-3v-7l9-6.5L149 62l11-2v8.5z"/>
    </defs>
    <g fill="none" fill-rule="evenodd">
        <path fill="none" d="M-631-439H401v1442H-631z"/>
        <g transform="translate(4 75)">
            <mask id="b" fill="#fff">
                <use xlink:href="#a"/>
            </mask>
            <use fill="#FFEAC8" fill-rule="nonzero" xlink:href="#a"/>
            <path fill="#EBCB97" fill-rule="nonzero" d="M205.5 18h-47v10.5h-1.362c-2.725 0-5.418.597-7.888 1.75a8.868 8.868 0 0 1-7.5 0 9.62 9.62 0 0 1-5.059-5.676l-.441-1.324a13.841 13.841 0 0 0-6.637-7.846L126.5 13.75a36.36 36.36 0 0 0-17.059-4.25H98.5l-31 19-6-4.5H41v-6H-1.5V9.5H41l3 6.5 30.5-2L102-2 134.5.5l11 9h31L209 5l-3.5 13z" mask="url(#b)"/>
            <path fill="#EBCB97" fill-rule="nonzero" d="M141.5 70.5L91.689 27l4.811-3 48 42.5zM128.5 72.5a4.398 4.398 0 0 0 .55 5.55l3.45 3.45 1-4.5-5-4.5zM117 80a5.488 5.488 0 0 0-.379 7.342L120 91.5l1.5-8L117 80zM104 87.5a5.914 5.914 0 0 0 .105 7.906L106.5 98l2-5.25-4.5-5.25z" mask="url(#b)"/>
            <path fill="#F58000" fill-rule="nonzero" d="M158.5 10v58H206V10z" mask="url(#b)"/>
            <path fill="#D77306" fill-rule="nonzero" d="M205 19.5h-45.5V9H205z" mask="url(#b)"/>
            <path fill="#F8A700" fill-rule="nonzero" d="M40.5 10v57H0V10z" mask="url(#b)"/>
            <path fill="#EA963B" fill-rule="nonzero" d="M39.5 20H0V9.5h39.5z" mask="url(#b)"/>
        </g>
        <path fill="#474D54" fill-rule="nonzero" d="M48.51 87.445c0-3.93-3.209-7.124-7.152-7.124H3.65a3.46 3.46 0 0 0-3.467 3.455 3.46 3.46 0 0 0 3.467 3.456h37.707c.12 0 .218.097.218.213v52.506a.217.217 0 0 1-.218.213H3.65a3.461 3.461 0 0 0-3.467 3.456 3.46 3.46 0 0 0 3.467 3.456h37.707c3.943 0 7.152-3.194 7.152-7.125v-1.775h9.02l19.526 18.04c.65.6 1.49.922 2.356.922.957 0 1.876-.39 2.54-1.103a3.448 3.448 0 0 0-.183-4.887l-20.522-18.962a3.473 3.473 0 0 0-2.357-.922H48.51V96.132h11.124a3.46 3.46 0 0 0 3.467-3.456 3.46 3.46 0 0 0-3.467-3.455H48.51v-1.776z"/>
        <path fill="#474D54" fill-rule="nonzero" d="M100.897 78.238h23.753c.647 0 1.263.195 1.789.566l4.364 3.07a3.474 3.474 0 0 0 4.829-.828 3.449 3.449 0 0 0-.832-4.82l-4.36-3.066a9.999 9.999 0 0 0-5.79-1.833H99.81c-.708 0-1.399.216-1.98.619L65.131 94.621a5.296 5.296 0 0 0-1.31 7.39l1.591 2.258a17.355 17.355 0 0 0 11.079 7.098c4.507.837 9.09-.1 12.896-2.637l11.958-7.915 42.704 38.636c1.5 1.39 1.58 3.77.167 5.282a3.793 3.793 0 0 1-3.294 1.154 3.726 3.726 0 0 1-2.041-.965 3.475 3.475 0 0 0-4.896.168 3.45 3.45 0 0 0 .174 4.893l1.294 1.203a3.711 3.711 0 0 1 1.203 2.617c.117 3.325-3.902 5.143-6.348 2.872a84881.46 84881.46 0 0 0-3.653-3.385 3.475 3.475 0 0 0-4.896.176 3.448 3.448 0 0 0 .177 4.888 3.706 3.706 0 0 1 1.197 2.61c.117 3.323-3.898 5.15-6.345 2.878l-3.133-2.903a3.475 3.475 0 0 0-4.896.176 3.45 3.45 0 0 0 .18 4.892 3.71 3.71 0 0 1 1.195 2.608c.117 3.322-3.901 5.148-6.348 2.875l-14.594-13.483a3.475 3.475 0 0 0-4.896.182 3.448 3.448 0 0 0 .183 4.886l14.588 13.478c2.026 1.882 4.62 2.859 7.67 2.852a10.66 10.66 0 0 0 7.454-3.387 10.592 10.592 0 0 0 2.535-4.578c.977.246 1.988.353 3.011.316a10.659 10.659 0 0 0 7.455-3.388 10.623 10.623 0 0 0 2.447-4.267c1.162.367 2.384.533 3.622.489a10.655 10.655 0 0 0 7.451-3.388 10.557 10.557 0 0 0 2.873-7.64c-.011-.31-.035-.619-.072-.924a10.72 10.72 0 0 0 5.773-3.19c.49-.524.92-1.091 1.292-1.696 2.107-.523 3.481-2.215 4.266-4.685.488-1.534.683-2.948.791-4.891h3.514v1.775c0 3.93 3.208 7.124 7.151 7.124h43.233a3.461 3.461 0 0 0 3.467-3.456 3.461 3.461 0 0 0-3.467-3.455H166.3c-.217-4.566-.217-4.566-.217-5.443v-31.55l-.001-7.89v-7.836c0-.077 14.484-.148 43.451-.213A3.461 3.461 0 0 0 213 83.776a3.461 3.461 0 0 0-3.467-3.455H166.3c-3.943 0-7.151 3.194-7.151 7.124v1.773h-8.003a17.885 17.885 0 0 0-4.615-4.737l-3.375-2.374a3.474 3.474 0 0 0-4.828.827 3.448 3.448 0 0 0 .83 4.82l3.374 2.373c1.49 1.048 2.65 2.405 3.56 4.183.422.873.727 1.792.907 2.743a3.464 3.464 0 0 0 4.047 2.756 3.458 3.458 0 0 0 2.814-3.68h5.289v35.135h-4.096a6.306 6.306 0 0 0-5.745 3.665 10.773 10.773 0 0 0-.57-.569l-9.808-8.874-3.27-2.96-31.57-28.684c-1.157-1.05-2.856-1.185-4.254-.325l-14.293 9.461c-4.715 3.142-11.205 1.937-14.457-2.68l-.657-.933 30.468-21.127zM107.46.5C105.547.5 104 2.264 104 4.441V37.06c0 2.177 1.548 3.941 3.46 3.941 1.91 0 3.459-1.764 3.459-3.941V4.44c0-2.177-1.549-3.941-3.46-3.941zM66.527 53.635L52.155 37.29a3.46 3.46 0 1 0-5.391 4.338l14.372 16.344a3.452 3.452 0 0 0 2.698 1.291 3.46 3.46 0 0 0 2.693-5.63zM46.085 28.561l-1.93-2.27a3.46 3.46 0 1 0-5.391 4.338l1.93 2.27a3.452 3.452 0 0 0 2.697 1.291 3.46 3.46 0 0 0 2.693-5.63zM171.264 29.561l1.93-2.27a3.46 3.46 0 1 1 5.39 4.338l-1.93 2.27a3.452 3.452 0 0 1-2.697 1.291 3.46 3.46 0 0 1-2.693-5.63zM170.236 36.764a3.459 3.459 0 0 0-4.864.528l-13.196 16.316a3.451 3.451 0 0 0 .52 4.859 3.468 3.468 0 0 0 4.87-.521l13.197-16.317a3.46 3.46 0 0 0-.527-4.865zM111.46 220.019c-1.912 0-3.46-1.764-3.46-3.942v-19.136c0-2.177 1.548-3.941 3.46-3.941 1.91 0 3.459 1.764 3.459 3.941v19.136c0 2.178-1.549 3.942-3.46 3.942zM60.527 182.365L55.137 190a3.46 3.46 0 1 1-5.392-4.338l5.391-7.635a3.452 3.452 0 0 1 2.698-1.291 3.46 3.46 0 0 1 2.693 5.63zM184.236 197.236a3.459 3.459 0 0 1-4.864-.528l-13.196-16.316a3.451 3.451 0 0 1 .52-4.859 3.468 3.468 0 0 1 4.87.521l13.197 16.317a3.46 3.46 0 0 1-.527 4.865z"/>
    </g>
</svg>
